<?xml version="1.0" standalone="no"?>
<!DOCTYPE svg PUBLIC "-//W3C//DTD SVG 20010904//EN"
 "http://www.w3.org/TR/2001/REC-SVG-20010904/DTD/svg10.dtd">
<svg version="1.0" xmlns="http://www.w3.org/2000/svg"
 width="468pt" height="97pt" viewBox="0 0 468 97"
 preserveAspectRatio="xMidYMid meet">
<metadata>
Created by POTRACE VERSION, written by Peter Selinger 2001-2007
</metadata>
<g transform="translate(0,97) scale(0.046800,-0.046800)"
fill="#000000" stroke="none">
<path d="M8681 1981 c-16 -17 -31 -44 -34 -61 -4 -16 -16 -38 -27 -47 -11 -10
-20 -21 -20 -24 0 -4 -30 -51 -66 -106 -36 -54 -72 -102 -80 -106 -8 -4 -14
-12 -14 -17 0 -5 -14 -31 -30 -57 -17 -26 -37 -51 -45 -56 -8 -4 -15 -14 -15
-21 0 -7 -11 -23 -25 -36 -14 -13 -25 -28 -25 -34 0 -7 -40 -54 -90 -106 -49
-52 -90 -101 -90 -108 0 -8 -26 -37 -57 -65 -32 -29 -72 -67 -89 -85 -18 -19
-45 -49 -61 -68 -15 -19 -44 -50 -63 -69 -19 -19 -54 -44 -76 -54 -23 -11 -60
-41 -82 -66 -27 -30 -54 -50 -79 -57 -21 -6 -59 -28 -84 -49 -26 -22 -56 -39
-67 -39 -11 0 -25 -7 -32 -15 -7 -8 -26 -15 -42 -15 -16 0 -46 -11 -66 -25
-20 -14 -49 -25 -64 -25 -16 0 -28 5 -28 13 0 6 16 26 36 42 19 17 45 41 57
54 12 14 46 49 75 79 45 45 53 58 50 85 -2 24 -8 33 -26 35 -14 2 -29 17 -42
41 -10 21 -26 41 -35 45 -9 3 -26 6 -38 6 -12 0 -40 -11 -62 -25 -22 -13 -49
-25 -60 -25 -11 0 -38 -13 -60 -28 -22 -15 -45 -38 -52 -51 -6 -13 -26 -29
-45 -36 -19 -6 -81 -58 -148 -124 -63 -62 -121 -116 -130 -121 -8 -4 -49 -15
-90 -24 -41 -9 -94 -24 -117 -33 -27 -10 -57 -13 -79 -10 -20 4 -45 2 -55 -4
-11 -5 -19 -7 -19 -5 0 3 10 16 23 29 12 14 31 35 42 48 11 13 32 30 48 38 15
8 41 36 57 63 17 27 30 53 30 58 0 5 12 17 26 26 14 10 34 34 45 56 11 21 24
38 29 38 5 0 30 15 55 34 24 19 59 37 77 41 18 4 40 12 48 19 8 6 30 20 49 30
18 10 54 38 80 63 25 24 67 54 93 65 25 11 58 33 72 49 14 16 26 32 26 37 0 4
17 25 38 45 21 20 42 37 47 37 6 0 32 21 59 48 27 26 55 61 62 78 7 18 29 41
47 52 27 15 35 28 41 60 5 31 13 44 34 54 21 10 26 19 24 40 -2 15 4 42 14 60
9 18 25 44 35 57 11 13 19 33 19 45 0 15 13 30 40 46 24 16 40 33 40 45 0 11
-9 26 -21 33 -16 10 -18 16 -9 27 6 7 7 16 2 19 -4 2 -30 -6 -58 -19 -27 -14
-71 -47 -99 -75 -27 -27 -53 -50 -57 -50 -4 0 -24 -15 -44 -34 -20 -18 -44
-41 -53 -51 -9 -9 -42 -43 -73 -76 -32 -32 -58 -61 -58 -64 0 -3 -14 -24 -31
-48 -17 -23 -41 -48 -55 -55 -13 -7 -24 -16 -24 -21 0 -4 -27 -34 -60 -67 -33
-32 -60 -64 -60 -69 0 -6 -21 -27 -46 -46 -25 -19 -62 -59 -82 -89 -20 -30
-52 -71 -71 -90 -18 -19 -40 -50 -47 -67 -8 -18 -19 -33 -24 -33 -5 0 -34 -24
-64 -53 -30 -29 -70 -58 -89 -65 -18 -7 -41 -12 -49 -12 -9 0 -25 -11 -35 -24
-14 -19 -31 -25 -81 -30 l-63 -6 20 28 c11 16 27 35 36 42 8 7 15 20 15 30 0
10 7 20 15 23 8 4 21 23 30 43 8 20 15 45 15 57 0 11 -10 36 -22 56 -12 20
-36 51 -54 69 -25 26 -39 32 -73 32 -28 0 -41 4 -41 14 0 7 16 30 35 50 19 21
38 48 41 60 3 13 23 34 44 47 21 13 49 45 64 70 14 26 26 54 26 63 0 9 10 30
22 47 16 21 22 44 22 82 1 45 -3 56 -31 86 -25 27 -30 38 -22 53 5 10 14 18
18 18 5 0 11 15 14 33 3 17 9 44 12 59 6 23 3 29 -23 42 -17 9 -43 16 -57 16
-14 0 -42 -7 -62 -15 -19 -8 -44 -15 -54 -15 -11 0 -29 -10 -41 -22 -11 -11
-57 -39 -100 -60 -58 -29 -87 -50 -106 -78 -17 -24 -41 -44 -62 -51 -19 -7
-51 -22 -70 -34 -19 -13 -56 -45 -82 -73 -27 -27 -48 -55 -48 -61 0 -6 -6 -11
-13 -11 -8 0 -34 -18 -58 -40 -24 -22 -68 -64 -96 -93 -29 -28 -60 -67 -68
-84 -9 -18 -29 -47 -45 -65 -17 -18 -30 -40 -30 -50 0 -11 -7 -18 -18 -18 -11
0 -35 -24 -60 -61 -23 -33 -42 -65 -42 -70 0 -6 -10 -20 -23 -32 -13 -12 -55
-60 -95 -107 -40 -47 -78 -90 -84 -96 -7 -6 -21 -21 -30 -33 -10 -12 -18 -28
-18 -35 0 -8 -33 -48 -72 -89 -40 -41 -87 -92 -105 -113 -18 -22 -44 -52 -58
-69 -14 -16 -25 -36 -25 -44 0 -8 -7 -22 -15 -31 -8 -9 -18 -37 -21 -62 -6
-44 -5 -47 25 -62 19 -10 41 -14 57 -10 14 4 45 17 67 30 23 13 60 32 83 42
22 11 65 42 94 71 29 28 58 51 65 51 7 0 30 7 51 16 22 9 72 50 114 93 41 43
87 83 102 89 14 6 29 20 33 31 3 11 16 23 28 27 12 4 35 21 53 38 17 17 48 44
68 61 21 16 41 32 45 35 4 3 17 25 29 49 13 28 34 51 59 65 20 12 51 40 68 62
16 22 42 48 58 57 15 9 27 23 27 32 0 9 18 33 40 55 22 22 40 43 40 48 0 4 18
18 40 31 22 12 40 28 40 36 0 8 8 20 18 27 11 7 25 24 32 38 7 14 33 43 57 64
23 22 43 45 43 51 0 6 12 22 26 36 14 13 32 38 41 56 8 18 19 33 24 33 5 0 9
6 9 14 0 7 7 19 15 26 10 8 19 9 25 4 5 -5 1 -32 -11 -63 -10 -30 -32 -67 -49
-82 -16 -16 -30 -37 -30 -49 0 -12 -13 -34 -29 -48 -16 -15 -35 -33 -43 -40
-7 -7 -25 -25 -40 -41 -16 -16 -28 -32 -28 -35 0 -3 -26 -31 -57 -62 -32 -31
-69 -63 -83 -72 -14 -9 -35 -26 -47 -37 -13 -11 -23 -27 -23 -35 0 -8 11 -28
25 -43 25 -26 27 -26 56 -12 16 9 51 36 77 61 26 25 58 50 72 56 14 5 44 12
68 14 29 3 53 -1 72 -13 17 -10 32 -29 35 -44 4 -17 0 -43 -11 -66 -10 -21
-42 -63 -71 -92 -29 -30 -53 -60 -53 -65 0 -6 -21 -26 -45 -45 -37 -28 -57
-35 -121 -42 -42 -4 -86 -15 -98 -22 -11 -8 -53 -22 -93 -31 -40 -10 -95 -33
-124 -52 -32 -20 -60 -48 -72 -71 -11 -21 -24 -45 -28 -53 -5 -8 -14 -25 -20
-36 -9 -18 -7 -27 12 -53 22 -29 27 -31 64 -25 22 3 58 17 81 30 22 13 54 24
71 24 17 0 37 8 47 19 10 11 28 22 41 25 14 4 29 15 35 26 6 11 17 20 25 20 8
0 18 6 22 13 4 7 28 25 53 39 25 14 55 39 66 55 13 18 39 34 65 42 24 7 51 16
59 21 9 4 49 13 89 20 40 8 79 20 87 27 8 8 18 12 23 8 6 -3 -10 -26 -34 -52
-25 -25 -48 -55 -51 -67 -4 -11 -36 -48 -72 -83 -36 -35 -69 -63 -74 -63 -4 0
-12 -9 -18 -21 -9 -16 -8 -26 4 -43 8 -13 22 -31 32 -40 12 -12 25 -15 46 -11
16 4 58 20 93 36 36 16 80 29 99 29 19 0 55 9 81 20 26 11 66 20 89 20 35 0
48 -6 69 -30 21 -24 35 -30 66 -30 21 0 62 5 91 10 42 8 59 18 85 47 l32 37
51 -37 c29 -20 63 -37 76 -37 13 0 29 7 36 15 6 7 32 17 58 21 25 4 79 25 119
46 40 22 76 45 80 52 5 6 27 20 51 30 23 11 45 16 48 13 3 -3 -1 -16 -10 -29
-9 -12 -16 -37 -16 -56 0 -25 5 -35 22 -41 13 -4 35 -5 50 0 15 4 36 5 47 2
10 -3 32 4 48 14 15 10 37 24 48 29 11 6 22 22 26 35 3 13 11 23 17 21 7 -1
29 -21 50 -44 20 -23 49 -54 64 -70 20 -20 37 -28 62 -28 19 0 38 5 41 10 4 7
13 7 25 0 13 -7 34 -7 62 -1 24 6 64 19 89 30 26 12 52 28 59 36 7 8 26 15 42
15 17 0 43 7 58 17 25 14 34 15 87 3 32 -8 96 -15 143 -16 47 -1 139 -3 205
-3 66 -1 156 0 201 3 44 2 94 6 110 10 16 3 73 8 126 11 54 3 108 9 120 14 13
5 57 9 98 9 41 0 93 6 116 14 35 12 46 12 85 0 24 -8 58 -25 74 -37 22 -16 51
-24 107 -29 43 -4 80 -12 84 -17 3 -5 13 -9 24 -9 10 0 21 7 24 15 3 9 0 18
-7 20 -6 2 -37 6 -68 8 -48 4 -63 10 -112 50 -41 33 -68 47 -102 53 -25 3 -87
4 -138 0 -51 -3 -100 -6 -109 -5 -10 0 -46 1 -80 2 -35 1 -157 -3 -273 -7
-115 -5 -226 -8 -245 -8 -19 1 -78 4 -131 7 -53 3 -122 9 -154 13 -36 4 -62
13 -68 23 -6 9 -7 23 -3 30 4 8 13 25 20 38 8 13 20 27 26 31 7 4 15 25 19 46
4 22 5 47 3 56 -2 9 -11 20 -21 23 -10 3 -29 1 -43 -4 -13 -5 -37 -20 -53 -33
-15 -12 -50 -45 -76 -73 -37 -38 -49 -58 -51 -85 -1 -19 -1 -47 0 -61 1 -20
-7 -34 -31 -51 -17 -14 -43 -28 -57 -31 -14 -3 -52 -12 -85 -21 -33 -8 -74
-15 -91 -16 -23 0 -36 7 -49 26 -9 14 -25 34 -36 45 -10 10 -19 26 -19 34 0 8
10 20 23 26 12 6 41 32 65 56 26 27 61 51 88 60 30 10 49 24 59 43 8 16 24 31
35 35 11 3 25 15 31 26 6 12 23 26 38 32 15 7 49 37 76 67 26 30 53 57 59 59
6 2 37 24 69 49 37 28 57 50 55 61 -3 12 -14 16 -48 15 -25 0 -63 -9 -84 -19
-21 -10 -64 -44 -95 -75 -31 -31 -67 -61 -81 -67 -14 -6 -38 -14 -55 -19 -16
-5 -42 -27 -58 -49 -15 -22 -37 -55 -49 -73 -15 -24 -24 -30 -31 -23 -6 6 -21
11 -34 11 -13 0 -23 4 -23 9 0 5 15 27 33 49 17 22 47 49 65 59 19 10 45 36
58 59 13 22 35 51 49 64 14 13 25 27 25 32 0 5 13 20 28 33 16 13 42 43 58 66
16 23 41 55 56 72 16 16 28 34 28 41 0 6 12 23 26 36 14 14 35 36 47 49 12 13
30 32 40 42 9 10 17 24 17 29 0 6 4 10 9 10 5 0 22 28 39 63 17 34 53 85 79
114 26 29 58 66 71 82 12 16 22 34 22 40 0 6 9 28 20 48 11 21 20 47 20 58 0
12 5 26 11 32 6 6 9 23 7 39 -2 18 -10 30 -21 32 -10 2 -30 -10 -46 -27z
m-2258 -183 c-1 -22 -11 -46 -25 -61 -14 -15 -40 -28 -63 -32 -22 -4 -51 -10
-65 -15 -14 -5 -62 -23 -107 -41 -46 -17 -83 -35 -83 -40 0 -5 -26 -22 -57
-38 -32 -16 -74 -45 -92 -65 -19 -20 -41 -36 -47 -36 -7 0 -17 -6 -21 -12 -4
-7 -18 -22 -30 -32 -14 -11 -23 -14 -23 -7 0 6 25 36 55 66 30 30 59 55 65 55
5 0 24 16 42 36 18 19 54 46 81 59 26 14 55 32 63 40 9 8 22 15 29 15 8 0 21
11 30 23 8 13 33 29 54 35 21 7 51 22 67 34 15 13 44 31 64 40 19 9 42 16 50
14 11 -1 14 -12 13 -38z m1060 -115 c-3 -10 -14 -29 -23 -43 -10 -14 -15 -31
-13 -37 3 -7 -3 -16 -11 -19 -9 -4 -32 -33 -51 -65 -18 -32 -52 -74 -74 -95
-23 -20 -41 -41 -41 -47 0 -6 -35 -43 -77 -84 -42 -40 -81 -73 -86 -73 -5 0
-25 -13 -44 -30 -18 -16 -38 -30 -44 -30 -5 0 -14 -11 -19 -25 -5 -14 -20 -29
-32 -34 -13 -5 -25 -7 -28 -4 -2 2 0 7 5 11 6 4 16 21 24 37 7 17 11 31 9 32
-1 1 8 13 20 26 13 14 35 28 48 31 13 4 24 11 24 17 0 5 10 24 23 42 12 17 32
40 45 50 12 10 22 25 22 33 0 8 4 14 10 14 5 0 18 17 29 38 11 21 31 44 44 51
14 8 56 49 94 92 37 44 71 79 74 79 3 0 18 11 33 25 15 14 31 25 36 25 5 0 7
-8 3 -17z m-1143 -65 c0 -7 -4 -18 -8 -23 -4 -6 -19 -18 -34 -28 -16 -10 -28
-22 -28 -28 0 -6 -6 -17 -12 -25 -7 -8 -25 -29 -40 -47 -16 -18 -55 -64 -88
-104 -33 -40 -60 -77 -60 -83 0 -6 -15 -20 -34 -31 -19 -11 -39 -33 -46 -50
-7 -16 -25 -36 -41 -44 -15 -8 -30 -24 -34 -35 -4 -11 -19 -27 -34 -35 -16 -8
-34 -29 -42 -47 -7 -18 -25 -43 -39 -55 -14 -11 -32 -33 -39 -47 -8 -14 -29
-30 -47 -36 -18 -6 -36 -20 -39 -30 -3 -10 -14 -22 -24 -25 -10 -3 -24 -17
-31 -30 -7 -14 -17 -25 -22 -25 -5 0 -45 -36 -90 -81 -45 -45 -100 -93 -121
-108 -22 -14 -49 -33 -61 -41 -12 -8 -33 -25 -46 -37 -13 -13 -27 -23 -32 -23
-4 0 -14 -12 -22 -28 -10 -19 -45 -43 -118 -80 -56 -29 -109 -52 -115 -52 -7
0 -13 4 -13 9 0 6 4 12 9 16 6 3 21 29 35 58 16 35 39 63 65 82 23 15 41 30
41 34 0 3 16 24 35 45 19 22 35 44 35 48 0 5 14 21 30 35 17 14 30 35 30 47 0
12 6 29 13 38 6 8 28 25 48 37 24 13 43 35 52 60 9 21 34 53 56 70 25 20 44
45 49 64 6 22 15 33 30 35 13 2 24 13 28 28 3 13 10 24 14 24 5 0 30 20 57 45
26 25 51 45 54 45 4 0 23 16 43 36 20 20 36 42 36 48 0 7 11 23 25 36 13 12
35 29 47 36 13 7 38 20 56 28 17 8 32 19 32 24 0 5 15 17 34 27 19 10 39 29
45 42 6 13 19 23 32 23 11 0 53 24 92 54 40 29 82 58 94 65 12 6 31 11 42 11
11 0 24 6 28 14 4 8 17 16 28 19 11 2 26 5 33 6 6 0 12 -5 12 -11z m-560 -243
c-7 -8 -19 -15 -27 -15 -10 0 -8 6 8 19 13 11 26 18 28 15 2 -2 -2 -10 -9 -19z
m1498 -514 c2 -12 -5 -34 -15 -50 -10 -16 -45 -51 -78 -78 -36 -29 -82 -57
-115 -67 -30 -10 -72 -24 -92 -31 -28 -10 -38 -10 -38 -2 0 7 14 20 30 29 18
10 30 25 30 37 0 15 9 22 33 26 20 4 54 26 87 57 30 28 73 64 94 80 22 16 44
27 50 25 6 -2 12 -14 14 -26z m-1218 -198 c-1 -5 -38 -35 -83 -68 -45 -33
-104 -68 -130 -78 -27 -11 -51 -17 -54 -14 -2 3 10 20 29 37 18 18 56 47 85
66 28 18 68 36 87 40 20 3 39 10 42 15 3 5 9 9 15 9 5 0 9 -3 9 -7z m945 -83
c3 -5 -1 -10 -10 -10 -9 0 -13 5 -10 10 3 6 8 10 10 10 2 0 7 -4 10 -10z m-55
-35 c-7 -8 -19 -15 -27 -15 -7 0 -16 -7 -19 -15 -4 -8 -17 -15 -30 -15 -13 0
-24 5 -24 10 0 6 15 19 33 30 17 11 43 20 56 20 20 0 21 -2 11 -15z"/>
<path d="M2406 1663 c-26 -20 -54 -49 -61 -63 -8 -15 -27 -42 -43 -61 -17 -19
-53 -61 -81 -93 -28 -33 -51 -65 -51 -71 0 -7 -6 -18 -14 -24 -8 -7 -17 -24
-21 -39 -3 -15 -27 -50 -53 -79 -26 -28 -60 -71 -77 -95 -16 -24 -30 -50 -30
-58 -1 -9 -8 -27 -18 -40 -9 -13 -17 -30 -17 -37 0 -7 -4 -13 -8 -13 -4 0 -18
-20 -30 -45 -12 -25 -26 -45 -32 -45 -5 0 -19 -22 -31 -49 -11 -27 -29 -57
-40 -67 -10 -9 -19 -22 -19 -28 0 -6 -18 -42 -40 -80 -22 -38 -43 -79 -46 -92
-4 -14 -20 -31 -40 -40 -20 -10 -37 -26 -40 -40 -3 -13 -16 -26 -27 -30 -12
-4 -35 -16 -51 -28 -16 -12 -37 -28 -46 -37 -10 -9 -47 -30 -84 -48 -36 -17
-66 -35 -66 -40 0 -5 -18 -11 -40 -13 -28 -2 -40 0 -40 9 0 7 4 13 10 13 5 0
26 26 47 57 21 31 43 63 48 72 6 9 25 35 43 58 17 23 32 45 32 49 0 4 18 26
40 50 22 24 40 53 40 64 0 11 -7 20 -16 20 -8 0 -25 -5 -37 -11 -12 -6 -48
-38 -80 -71 -32 -32 -65 -74 -73 -91 -7 -18 -34 -52 -59 -77 -25 -25 -45 -48
-45 -52 0 -3 -10 -19 -23 -35 -13 -15 -28 -45 -34 -65 -9 -32 -8 -39 8 -53 13
-13 30 -16 66 -12 26 3 71 12 98 20 28 8 72 29 98 46 25 18 49 36 52 42 4 5
13 9 22 9 9 0 31 11 50 26 18 14 33 31 33 39 0 8 5 17 10 20 7 4 8 -8 4 -37
-4 -24 -13 -50 -20 -59 -8 -8 -14 -32 -14 -52 0 -27 7 -41 26 -56 15 -12 33
-21 41 -21 8 0 40 7 70 16 30 9 62 24 72 34 9 10 22 25 28 32 7 7 18 19 25 26
7 7 30 31 52 52 21 22 42 40 46 40 5 0 15 3 24 6 12 5 14 -1 9 -33 -3 -21 -9
-42 -13 -48 -5 -5 -12 -26 -18 -46 -5 -20 -7 -40 -3 -45 3 -5 21 -19 39 -32
27 -19 37 -21 65 -13 17 5 61 22 97 36 36 15 72 33 80 40 8 7 30 16 48 20 21
4 36 15 42 29 4 12 14 27 21 33 8 5 27 13 42 15 28 5 29 4 23 -27 -6 -28 -2
-36 20 -54 19 -15 41 -21 75 -21 27 0 73 9 104 21 30 11 62 30 70 42 13 19 13
22 0 30 -8 4 -40 3 -72 -2 -31 -6 -59 -9 -61 -6 -3 3 2 13 11 23 10 10 17 23
17 29 0 6 7 16 15 23 8 7 15 20 15 30 0 9 8 24 18 34 11 9 27 42 37 74 11 31
27 66 36 77 10 11 19 31 21 45 2 21 -2 26 -23 28 -17 2 -36 -5 -51 -20 -14
-13 -32 -37 -41 -54 -9 -18 -42 -57 -74 -88 -32 -31 -87 -83 -122 -116 -45
-42 -78 -64 -112 -74 -27 -8 -80 -33 -118 -55 -40 -24 -82 -41 -100 -41 -24 0
-31 4 -31 19 0 10 7 37 15 60 8 23 34 66 58 94 25 29 52 68 61 89 10 20 26 38
37 41 13 3 19 14 19 31 0 14 4 26 9 26 5 0 18 19 30 43 12 23 29 54 39 68 9
14 26 39 37 55 11 16 39 53 62 82 24 29 43 59 43 66 0 8 11 21 25 30 14 9 25
25 25 35 0 10 17 38 39 62 21 24 46 60 56 79 10 18 24 40 31 48 8 7 26 34 41
60 14 26 35 57 45 68 14 15 17 29 12 48 -4 19 -13 26 -30 26 -14 0 -41 -17
-69 -43 -25 -24 -45 -50 -45 -58 0 -8 -17 -33 -38 -54 -20 -22 -55 -66 -77
-99 -22 -32 -52 -81 -66 -110 -15 -28 -34 -58 -43 -65 -9 -7 -16 -20 -16 -27
0 -8 -4 -14 -10 -14 -5 0 -19 -18 -30 -40 -11 -22 -24 -40 -28 -40 -4 0 -31
-35 -59 -77 -29 -43 -78 -103 -111 -133 -32 -30 -86 -79 -118 -108 -32 -29
-66 -59 -74 -66 -8 -6 -41 -25 -73 -42 -33 -16 -62 -36 -65 -44 -3 -8 -17 -27
-31 -42 -14 -15 -32 -28 -38 -28 -7 0 -13 9 -13 21 0 11 5 30 11 42 7 12 25
34 40 48 16 14 29 31 29 37 0 6 13 40 29 74 16 35 37 70 48 80 10 9 33 32 51
52 17 19 32 40 32 46 0 6 8 14 19 18 10 4 49 42 85 86 37 43 81 93 99 110 18
17 49 50 70 73 20 23 37 45 37 50 0 5 14 22 30 38 17 16 30 33 30 38 0 5 10
17 23 27 12 10 28 35 36 56 7 22 21 48 31 59 10 11 27 40 39 64 12 25 21 50
21 55 0 6 14 30 30 54 16 24 32 65 36 90 4 26 16 64 26 84 18 35 18 38 3 62
-10 15 -27 26 -40 26 -12 0 -43 -17 -69 -37z m-15 -177 c-12 -25 -21 -51 -21
-59 0 -7 -11 -36 -25 -63 -14 -27 -23 -54 -21 -61 3 -6 -2 -14 -9 -17 -9 -3
-12 -12 -8 -22 4 -11 -9 -30 -46 -64 -28 -26 -51 -51 -51 -56 0 -5 -23 -33
-50 -63 -28 -30 -50 -58 -50 -63 0 -5 -23 -33 -52 -63 -29 -30 -58 -55 -65
-55 -8 0 -17 -8 -20 -17 -4 -10 -15 -27 -25 -37 -10 -11 -18 -16 -17 -10 0 5
9 23 20 39 10 17 21 37 25 45 3 8 10 24 15 35 5 11 17 32 27 46 9 14 26 38 36
54 11 15 32 40 48 55 15 16 28 36 28 45 0 9 11 31 24 48 14 18 28 46 32 62 4
17 20 49 36 72 16 24 38 47 48 53 11 6 20 16 20 22 0 7 17 29 38 49 20 20 46
49 57 63 11 14 21 21 23 16 2 -4 -6 -29 -17 -54z"/>
<path d="M923 1530 c-29 -17 -53 -35 -53 -40 0 -6 -6 -10 -14 -10 -7 0 -25 -9
-39 -20 -14 -11 -31 -20 -39 -20 -7 0 -24 -12 -37 -25 -13 -14 -27 -25 -31
-25 -4 0 -13 -13 -20 -30 -7 -16 -16 -30 -21 -30 -5 0 -14 -11 -20 -24 -7 -14
-22 -27 -34 -30 -13 -3 -42 -22 -64 -43 -23 -20 -54 -59 -71 -87 -16 -28 -36
-60 -43 -71 -6 -11 -18 -24 -24 -28 -7 -4 -13 -15 -13 -24 0 -8 -10 -34 -21
-57 -12 -22 -28 -53 -35 -68 -8 -14 -14 -37 -14 -50 0 -13 -5 -29 -11 -35 -9
-9 -7 -20 8 -45 11 -19 29 -34 42 -36 13 -2 33 5 44 16 12 11 36 26 52 33 19
9 30 22 30 34 0 13 -8 21 -22 23 -14 2 -26 -4 -33 -17 -6 -12 -15 -21 -20 -21
-6 0 -10 9 -10 19 0 11 12 47 26 80 15 34 30 61 35 61 4 0 10 14 14 30 4 17
13 44 22 60 8 17 19 30 24 30 5 0 15 16 23 35 8 19 22 38 31 41 8 3 15 12 15
19 0 7 13 24 28 37 15 13 31 31 35 41 4 10 15 20 24 24 10 4 29 18 43 32 14
14 49 46 77 71 29 24 71 55 93 67 22 13 47 23 54 23 8 0 16 7 20 15 3 9 18 15
36 15 19 0 30 -5 30 -14 0 -8 -6 -16 -13 -19 -8 -3 -21 -20 -30 -39 -9 -18
-27 -50 -41 -71 -14 -21 -26 -43 -26 -49 0 -5 -19 -33 -42 -61 -24 -28 -47
-58 -53 -67 -5 -9 -36 -54 -67 -101 -31 -46 -65 -94 -75 -105 -10 -12 -27 -26
-39 -32 -11 -6 -29 -28 -40 -49 -10 -21 -27 -44 -36 -51 -10 -7 -18 -19 -18
-27 0 -7 -9 -17 -20 -20 -11 -3 -20 -11 -20 -18 0 -6 -12 -28 -26 -49 -15 -20
-42 -46 -60 -57 -22 -13 -34 -28 -34 -42 0 -12 -15 -35 -34 -53 -18 -17 -36
-42 -39 -56 -3 -14 -25 -45 -47 -70 -23 -25 -54 -58 -69 -75 -16 -16 -40 -49
-54 -72 -14 -23 -31 -44 -36 -48 -6 -3 -22 -29 -35 -57 -13 -28 -22 -57 -19
-64 3 -8 16 -17 29 -20 14 -4 38 -4 55 0 19 4 48 26 80 60 28 30 59 58 69 61
10 3 22 14 25 24 3 10 17 23 30 29 14 6 25 17 25 24 0 7 10 24 23 38 12 14 30
37 40 52 9 15 29 31 42 34 14 3 30 14 35 25 6 10 26 23 45 30 26 10 34 17 30
30 -3 10 -2 26 4 36 5 10 12 26 15 35 3 10 20 20 43 24 21 4 46 16 56 27 9 11
17 31 17 44 0 12 4 23 9 23 5 0 23 12 40 26 17 14 31 23 31 21 0 -3 -24 -51
-52 -107 -29 -55 -59 -111 -65 -123 -7 -12 -13 -33 -13 -47 0 -19 -8 -28 -29
-37 -19 -7 -37 -25 -50 -54 -12 -23 -21 -46 -21 -51 0 -5 -15 -30 -34 -56 -18
-27 -37 -58 -41 -71 -4 -14 -1 -31 9 -46 13 -20 25 -25 60 -25 37 0 48 5 73
34 17 18 43 36 58 40 16 4 43 23 61 42 18 19 37 34 43 34 5 0 18 16 27 36 10
20 28 40 43 45 14 6 39 22 54 37 16 15 36 43 45 62 9 19 42 60 74 91 32 31 58
61 58 67 0 5 13 26 29 46 16 20 32 50 36 66 3 16 17 35 29 44 13 8 27 30 31
48 4 18 7 36 6 40 0 4 17 19 39 33 22 14 40 31 41 38 1 6 2 27 4 45 1 17 8 39
15 47 7 8 10 24 7 36 -3 12 3 36 14 56 11 20 27 56 36 82 8 25 20 52 27 60 6
8 10 22 8 33 -2 10 2 18 7 18 6 0 11 6 11 14 0 7 9 16 21 19 12 3 18 10 15 16
-4 5 -2 12 4 16 5 3 10 20 10 36 0 17 -7 37 -15 45 -8 9 -15 24 -15 35 0 11
-5 29 -10 40 -7 13 -21 19 -43 19 -21 0 -40 -9 -56 -26 -20 -21 -22 -28 -13
-49 7 -14 16 -25 22 -25 5 0 10 -16 10 -36 0 -19 -9 -55 -20 -80 -11 -24 -23
-58 -27 -74 -3 -17 -10 -33 -14 -36 -5 -3 -9 -20 -9 -37 0 -18 -9 -43 -20 -57
-12 -16 -17 -34 -13 -51 4 -21 -2 -35 -26 -60 -18 -18 -30 -40 -29 -48 2 -8
-6 -25 -17 -37 -12 -12 -27 -35 -34 -51 -7 -15 -17 -35 -22 -43 -5 -8 -14 -26
-20 -40 -7 -14 -18 -40 -26 -57 -8 -18 -18 -33 -23 -33 -6 0 -10 -5 -10 -11 0
-6 -12 -27 -27 -47 -15 -20 -46 -59 -70 -87 -24 -27 -53 -61 -65 -75 -13 -14
-26 -33 -30 -43 -4 -9 -18 -21 -32 -27 -13 -5 -28 -15 -33 -23 -4 -8 -23 -22
-41 -31 -18 -9 -36 -24 -39 -32 -3 -8 -25 -28 -50 -45 -24 -17 -46 -29 -48
-27 -3 2 4 20 15 39 10 18 26 48 34 66 9 17 21 35 27 39 6 3 27 40 46 82 18
41 44 83 57 93 13 10 27 30 30 44 4 14 11 25 17 25 5 0 20 21 31 48 11 26 31
60 44 75 13 16 24 35 24 42 0 8 -15 28 -32 44 -18 17 -36 31 -40 31 -4 0 -14
-8 -24 -17 -9 -10 -32 -25 -49 -33 -18 -8 -44 -30 -59 -47 -15 -18 -32 -33
-38 -33 -5 0 -28 -17 -51 -37 -22 -21 -63 -59 -91 -85 -27 -27 -52 -48 -55
-48 -4 -1 -24 -25 -46 -55 -22 -31 -50 -58 -62 -61 -12 -3 -25 -15 -28 -25 -4
-10 -11 -19 -16 -19 -5 0 -9 4 -9 9 0 6 5 13 10 16 6 4 19 23 30 44 12 24 31
43 51 51 20 9 37 26 46 48 8 19 23 44 35 56 11 11 28 40 38 63 11 23 31 50 47
59 15 10 40 30 54 44 14 15 29 39 33 53 3 15 15 31 26 37 11 6 20 16 20 22 0
7 11 28 25 48 14 20 46 52 72 72 37 28 51 47 61 81 8 25 25 55 38 68 13 12 24
29 24 37 0 8 26 44 58 79 31 35 65 76 74 91 10 15 18 40 18 55 0 16 -5 38 -11
50 -7 12 -17 25 -23 29 -6 4 -33 8 -61 8 -37 0 -63 -8 -102 -30z m-583 -1129
c0 -6 -4 -13 -10 -16 -5 -3 -10 1 -10 9 0 9 5 16 10 16 6 0 10 -4 10 -9z"/>
<path d="M3580 725 c-19 -19 -38 -35 -42 -35 -4 0 -35 -26 -68 -58 -33 -32
-73 -68 -90 -80 -16 -12 -34 -22 -40 -22 -5 0 -10 -6 -10 -13 0 -7 -16 -19
-35 -27 -19 -7 -37 -20 -40 -27 -2 -8 -10 -11 -15 -8 -8 5 -5 16 6 33 9 15 27
36 39 47 13 11 26 34 30 50 4 17 7 41 7 54 0 14 -8 31 -18 38 -10 7 -28 13
-41 13 -13 0 -35 8 -49 17 -22 14 -30 15 -58 4 -17 -7 -45 -19 -63 -25 -18 -7
-58 -34 -90 -62 -32 -27 -73 -65 -93 -85 -19 -19 -52 -55 -72 -79 -21 -24 -40
-57 -44 -74 -5 -25 -1 -34 26 -59 32 -28 36 -29 102 -24 54 5 79 13 115 36 26
17 50 31 54 31 4 0 18 -4 32 -9 15 -6 45 -5 86 4 34 7 70 19 79 28 9 8 36 24
58 35 23 12 56 39 73 61 19 24 46 44 69 52 20 6 43 16 50 22 6 5 12 16 12 23
0 8 9 23 20 34 11 11 27 20 35 20 8 0 15 -5 15 -10 0 -6 -9 -28 -20 -50 -11
-22 -20 -46 -20 -55 0 -9 -8 -28 -17 -43 -9 -15 -30 -41 -46 -58 -22 -24 -27
-38 -22 -54 6 -20 12 -22 51 -17 32 3 51 13 73 36 16 17 36 31 44 31 8 0 20 7
27 15 7 8 19 15 26 15 8 0 14 -6 14 -14 0 -7 6 -18 13 -24 8 -6 35 -7 77 -1
35 5 69 14 74 19 6 6 18 10 27 10 10 0 24 7 32 15 13 12 16 9 22 -31 4 -32 13
-49 31 -61 16 -10 44 -16 75 -15 27 0 68 10 92 20 25 11 48 25 51 31 4 6 18
11 31 11 13 0 27 5 31 12 4 6 -3 19 -16 30 -15 12 -27 15 -34 9 -6 -5 -40 -16
-76 -24 -35 -9 -69 -13 -73 -10 -5 3 -6 24 -3 46 4 23 11 46 16 53 6 6 16 32
24 58 13 41 12 48 -1 62 -11 10 -25 13 -42 9 -14 -4 -34 -15 -44 -26 -10 -10
-24 -19 -31 -19 -7 0 -18 -11 -24 -24 -6 -13 -32 -35 -58 -50 -37 -20 -49 -24
-56 -14 -4 7 -8 16 -8 21 0 4 5 15 11 25 9 14 8 26 -5 50 -9 18 -23 32 -32 32
-8 0 -30 -11 -48 -25 -18 -14 -38 -25 -44 -25 -7 0 -12 18 -12 45 0 25 1 48 3
51 1 3 -6 10 -15 15 -10 6 -18 16 -18 23 0 8 -10 16 -22 20 -13 3 -32 6 -43 5
-11 0 -36 -16 -55 -34z m-397 -107 c-11 -13 -28 -44 -38 -70 -10 -26 -24 -53
-32 -60 -8 -7 -23 -17 -33 -23 -10 -5 -48 -27 -85 -47 -36 -21 -72 -38 -80
-38 -8 0 -15 9 -15 20 0 11 11 27 24 36 14 8 28 29 31 46 5 23 17 34 52 49 25
10 47 28 50 38 2 10 16 24 29 30 14 6 31 11 38 11 8 0 19 7 26 15 7 8 22 15
33 15 l20 0 -20 -22z"/>
</g>
</svg>
